<svg width="44" height="40" viewBox="0 0 44 40" fill="none" xmlns="http://www.w3.org/2000/svg">
<path d="M30.3718 16.9858C28.6419 18.8238 26.5241 20.4849 25.6592 21.1336L26.8741 23.4351C27.5282 22.9648 29.2365 22.3756 31.999 21.6782C34.1938 21.1106 35.8481 20.6402 36.9725 20.2672C38.0916 19.8942 39.1944 19.359 40.2972 18.6725C41.3946 17.9859 42.119 17.3372 42.4812 16.7371C42.8434 16.1317 43.0219 15.4505 43.0219 14.6828C43.0219 13.5854 42.6488 12.6826 41.9028 11.9582C41.1622 11.2392 40.2594 10.877 39.2106 10.877C37.1293 10.877 34.183 12.9151 30.3718 16.9858Z" fill="#FF0000"/>
<path d="M16.3532 23.4891C15.6288 23.0512 14.2232 22.6025 12.1149 22.143C8.93612 21.4673 6.13041 20.5266 3.67608 19.3319C1.22176 18.1372 0 16.7154 0 15.0774C0 14.0935 0.308142 13.1799 0.929832 12.3474C1.55152 11.5149 2.42189 11.0986 3.55174 11.0986C4.76809 11.0986 6.07635 11.504 7.47109 12.3204C8.87125 13.1367 10.5579 14.6665 12.5311 16.91C14.6068 19.2748 16.2413 20.76 17.4344 21.3677L16.3532 23.4891Z" fill="#FF0000"/>
<path d="M19.0899 21.7673C19.3387 21.528 19.5872 21.289 19.7807 21.0244C20.1051 20.5812 20.2727 20.0622 20.2727 19.4405C20.2727 18.6945 19.9213 17.0132 19.2239 14.4075C18.0994 10.1963 17.5318 7.08241 17.5318 5.06058C17.5318 3.87126 17.8508 2.88196 18.4995 2.08188C19.1482 1.2872 20.1483 0.876343 21.5106 0.876343C22.8459 0.876343 23.846 1.27098 24.5002 2.06566C25.1597 2.85493 25.484 3.86585 25.484 5.09301C25.484 7.10944 24.8786 10.2179 23.6622 14.4075C22.9162 17.0186 22.5486 18.6728 22.5486 19.3756C22.5486 20.0568 22.727 20.6082 23.0784 21.0407C23.297 21.3098 23.5722 21.5461 23.8477 21.7828C24.264 22.1403 24.6812 22.4987 24.9058 22.9721L25.5039 24.2331C25.6229 24.4838 25.702 24.7528 25.7811 25.0216C25.8733 25.3347 25.9653 25.6476 26.1201 25.9313C26.2476 26.1649 26.4287 26.3866 26.6626 26.598C27.1761 27.0575 28.6682 27.5603 31.1333 28.1063C35.3932 29.0686 38.4693 30.0957 40.3668 31.1769C42.2643 32.2581 43.2157 33.6366 43.2157 35.2962C43.2157 36.3666 42.8427 37.2748 42.0913 38.0101C41.3398 38.7453 40.4641 39.1129 39.4532 39.1129C38.3774 39.1129 37.1772 38.7345 35.8582 37.9722C34.5391 37.21 32.3821 35.3071 29.398 32.2635C29.1915 32.0519 28.9932 31.8505 28.8031 31.6595C28.0694 30.7582 27.2457 29.9927 26.3527 29.3915C26.288 29.342 26.2273 29.2974 26.1706 29.2578C25.9212 29.0856 25.6753 28.9476 25.4346 28.8447C24.2451 28.2251 22.9553 27.886 21.6079 27.886C19.1207 27.886 16.8298 29.0417 15.0037 30.9838C14.2561 31.6587 13.3287 32.5322 12.2231 33.6042C9.86611 35.8747 8.10916 37.3613 6.94687 38.0641C5.78998 38.7723 4.69797 39.1237 3.67083 39.1237C2.70856 39.1237 1.87604 38.7507 1.16785 38.0046C0.459665 37.2586 0.102869 36.3288 0.102869 35.2152C0.102869 34.3826 0.335327 33.6582 0.811055 33.0311C1.28678 32.404 2.21121 31.7607 3.57352 31.0742C4.93583 30.3984 6.76847 29.7173 9.06602 29.0415C11.3582 28.3658 12.9475 27.9117 13.8287 27.6954C15.7501 27.2064 16.9059 26.5962 17.2906 25.8647C17.4071 25.6433 17.4568 25.3958 17.5066 25.1479C17.5351 25.006 17.5636 24.8639 17.6047 24.7266L18.0897 23.1068C18.2485 22.5764 18.6696 22.1714 19.0899 21.7673Z" fill="#242831"/>
</svg>
