<svg width="24" height="24" viewBox="0 0 24 24" fill="none" xmlns="http://www.w3.org/2000/svg">
<path d="M22.0088 7.94805L20.3548 13.548C20.0998 14.408 19.2858 15 18.3598 15H9.2018C8.2748 15 7.4598 14.407 7.2058 13.548L5.55219 7.94805L4.7998 5.40005L1.99994 5.3999M17.5898 21C17.9876 21 18.3692 20.842 18.6505 20.5607C18.9318 20.2794 19.0898 19.8979 19.0898 19.5C19.0898 19.1022 18.9318 18.7207 18.6505 18.4394C18.3692 18.1581 17.9876 18 17.5898 18C17.192 18 16.8104 18.1581 16.5291 18.4394C16.2478 18.7207 16.0898 19.1022 16.0898 19.5C16.0898 19.8979 16.2478 20.2794 16.5291 20.5607C16.8104 20.842 17.192 21 17.5898 21ZM9.5898 21C9.98762 21 10.3692 20.842 10.6505 20.5607C10.9318 20.2794 11.0898 19.8979 11.0898 19.5C11.0898 19.1022 10.9318 18.7207 10.6505 18.4394C10.3692 18.1581 9.98762 18 9.5898 18C9.19197 18 8.81044 18.1581 8.52914 18.4394C8.24783 18.7207 8.0898 19.1022 8.0898 19.5C8.0898 19.8979 8.24783 20.2794 8.52914 20.5607C8.81044 20.842 9.19197 21 9.5898 21Z" stroke="#F7F6F4" stroke-linecap="round" stroke-linejoin="round"/>
</svg>
