<svg width="24" height="24" viewBox="0 0 24 24" fill="none" xmlns="http://www.w3.org/2000/svg">
<path d="M22.0089 7.94805L20.3549 13.548C20.0999 14.408 19.2859 15 18.3599 15H9.20186C8.27486 15 7.45986 14.407 7.20586 13.548L5.55225 7.94805L4.79986 5.40005L2 5.3999M17.5899 21C17.9877 21 18.3692 20.842 18.6505 20.5607C18.9318 20.2794 19.0899 19.8979 19.0899 19.5C19.0899 19.1022 18.9318 18.7207 18.6505 18.4394C18.3692 18.1581 17.9877 18 17.5899 18C17.192 18 16.8105 18.1581 16.5292 18.4394C16.2479 18.7207 16.0899 19.1022 16.0899 19.5C16.0899 19.8979 16.2479 20.2794 16.5292 20.5607C16.8105 20.842 17.192 21 17.5899 21ZM9.58986 21C9.98769 21 10.3692 20.842 10.6505 20.5607C10.9318 20.2794 11.0899 19.8979 11.0899 19.5C11.0899 19.1022 10.9318 18.7207 10.6505 18.4394C10.3692 18.1581 9.98769 18 9.58986 18C9.19204 18 8.81051 18.1581 8.5292 18.4394C8.2479 18.7207 8.08986 19.1022 8.08986 19.5C8.08986 19.8979 8.2479 20.2794 8.5292 20.5607C8.81051 20.842 9.19204 21 9.58986 21Z" stroke="#313136" stroke-linecap="round" stroke-linejoin="round"/>
</svg>
