<svg width="204" height="32" viewBox="0 0 204 32" fill="none" xmlns="http://www.w3.org/2000/svg">
<path d="M3.962 5.024L4.204 5.068V30.5H0.442V1.46H5.744L20.814 26.87L20.572 26.914V1.46H24.334V30.5H18.988L3.962 5.024ZM28.3043 15.958C28.3043 18.114 28.7516 20.0573 29.6463 21.788C30.5556 23.5187 31.8023 24.8973 33.3863 25.924C34.9703 26.936 36.789 27.442 38.8423 27.442C40.9103 27.442 42.729 26.936 44.2983 25.924C45.8823 24.8973 47.1216 23.5187 48.0163 21.788C48.911 20.0573 49.3583 18.114 49.3583 15.958C49.3583 13.802 48.911 11.866 48.0163 10.15C47.1216 8.41933 45.8823 7.048 44.2983 6.036C42.729 5.024 40.9103 4.518 38.8423 4.518C36.789 4.518 34.9703 5.024 33.3863 6.036C31.8023 7.048 30.5556 8.41933 29.6463 10.15C28.7516 11.866 28.3043 13.802 28.3043 15.958ZM24.4103 15.958C24.4103 13.846 24.7696 11.8807 25.4883 10.062C26.2216 8.22867 27.241 6.63 28.5463 5.266C29.8516 3.902 31.377 2.83867 33.1223 2.076C34.8823 1.31333 36.789 0.931998 38.8423 0.931998C40.9103 0.931998 42.817 1.31333 44.5623 2.076C46.3223 2.83867 47.8476 3.902 49.1383 5.266C50.4436 6.63 51.4556 8.22867 52.1743 10.062C52.893 11.8807 53.2523 13.846 53.2523 15.958C53.2523 18.0847 52.893 20.0647 52.1743 21.898C51.4703 23.7167 50.4656 25.3153 49.1603 26.694C47.8696 28.058 46.3516 29.1213 44.6063 29.884C42.861 30.6467 40.9396 31.028 38.8423 31.028C36.745 31.028 34.809 30.6467 33.0343 29.884C31.2743 29.1213 29.749 28.058 28.4583 26.694C27.1676 25.3153 26.1703 23.7167 25.4663 21.898C24.7623 20.0647 24.4103 18.0847 24.4103 15.958ZM53.2372 1.46H63.3792C64.9485 1.46 66.3712 1.79 67.6472 2.45C68.9379 3.09533 69.9645 4.04866 70.7272 5.31C71.5045 6.55667 71.8932 8.082 71.8932 9.886C71.8932 11.6753 71.5339 13.1567 70.8152 14.33C70.1112 15.5033 69.2605 16.3907 68.2632 16.992C67.2659 17.5787 66.3419 17.9013 65.4912 17.96L72.6852 30.5H68.4172L61.6852 18.224H56.9992V30.5H53.2372V1.46ZM56.9992 15.43H62.0592C63.7899 15.43 65.2199 14.9973 66.3492 14.132C67.4785 13.2667 68.0432 11.8807 68.0432 9.974C68.0432 8.06733 67.4785 6.696 66.3492 5.86C65.2345 5.024 63.8119 4.606 62.0812 4.606H56.9992V15.43ZM73.1554 1.46H79.9974C83.0921 1.46 85.6368 2.08333 87.6314 3.33C89.6408 4.562 91.1294 6.27067 92.0974 8.456C93.0654 10.6413 93.5494 13.142 93.5494 15.958C93.5494 18.7887 93.0654 21.2967 92.0974 23.482C91.1294 25.6673 89.6481 27.3833 87.6534 28.63C85.6588 29.8767 83.1068 30.5 79.9974 30.5H73.1554V1.46ZM76.8954 4.892V27.068H79.6894C81.9774 27.068 83.8474 26.5913 85.2994 25.638C86.7514 24.6847 87.8221 23.3793 88.5114 21.722C89.2154 20.05 89.5748 18.1433 89.5894 16.002C89.5894 13.846 89.2448 11.9393 88.5554 10.282C87.8661 8.61 86.7881 7.29733 85.3214 6.344C83.8548 5.376 81.9774 4.892 79.6894 4.892H76.8954ZM94.2672 1.46H98.0512V30.5H94.2672V1.46ZM113.909 27.31C115.713 27.31 117.275 27.0607 118.595 26.562C119.929 26.0633 120.875 25.5793 121.433 25.11L123.083 28.344C122.423 28.9307 121.271 29.5247 119.629 30.126C118.001 30.7273 116.043 31.028 113.755 31.028C111.613 31.028 109.626 30.6467 107.793 29.884C105.959 29.1213 104.353 28.058 102.975 26.694C101.611 25.33 100.54 23.7387 99.7627 21.92C99.0001 20.1013 98.6187 18.136 98.6187 16.024C98.6187 13.912 99.0001 11.9393 99.7627 10.106C100.525 8.27267 101.589 6.674 102.953 5.31C104.331 3.93133 105.937 2.86067 107.771 2.098C109.619 1.32067 111.613 0.931998 113.755 0.931998C116.043 0.931998 118.001 1.23266 119.629 1.834C121.271 2.43533 122.423 3.02933 123.083 3.616L121.433 6.85C120.875 6.366 119.929 5.882 118.595 5.398C117.275 4.89933 115.713 4.65 113.909 4.65C112.266 4.65 110.763 4.92867 109.399 5.486C108.035 6.04333 106.847 6.83533 105.835 7.862C104.837 8.874 104.06 10.0693 103.503 11.448C102.96 12.8267 102.689 14.33 102.689 15.958C102.689 17.6007 102.96 19.1187 103.503 20.512C104.06 21.8907 104.837 23.0933 105.835 24.12C106.847 25.132 108.035 25.9167 109.399 26.474C110.763 27.0313 112.266 27.31 113.909 27.31ZM126.749 5.024L126.991 5.068V30.5H123.229V1.46H128.531L143.601 26.87L143.359 26.914V1.46H147.121V30.5H141.775L126.749 5.024ZM148.65 1.46H165.81V4.87H152.368V14.286H165.546V17.608H152.368V27.09H165.81V30.5H148.65V1.46ZM176.387 0.931998C178.059 0.931998 179.496 1.12266 180.699 1.504C181.916 1.88533 182.87 2.28867 183.559 2.714C184.263 3.13933 184.681 3.418 184.813 3.55L182.877 6.652C182.657 6.46133 182.268 6.19 181.711 5.838C181.154 5.47133 180.457 5.14867 179.621 4.87C178.785 4.57667 177.832 4.43 176.761 4.43C175.104 4.43 173.791 4.76733 172.823 5.442C171.87 6.102 171.393 7.04066 171.393 8.258C171.393 9.07933 171.642 9.80533 172.141 10.436C172.654 11.052 173.373 11.6167 174.297 12.13C175.221 12.6433 176.299 13.1713 177.531 13.714C178.543 14.1393 179.533 14.6233 180.501 15.166C181.484 15.7087 182.371 16.3467 183.163 17.08C183.97 17.8133 184.608 18.664 185.077 19.632C185.561 20.6 185.803 21.7147 185.803 22.976C185.803 24.2227 185.546 25.3447 185.033 26.342C184.534 27.3393 183.823 28.19 182.899 28.894C181.99 29.5833 180.926 30.1113 179.709 30.478C178.492 30.8447 177.179 31.028 175.771 31.028C173.996 31.028 172.39 30.808 170.953 30.368C169.53 29.928 168.379 29.466 167.499 28.982C166.634 28.498 166.135 28.1973 166.003 28.08L168.049 24.846C168.225 24.9927 168.548 25.2127 169.017 25.506C169.486 25.7847 170.066 26.078 170.755 26.386C171.444 26.694 172.222 26.958 173.087 27.178C173.952 27.3833 174.876 27.486 175.859 27.486C177.824 27.486 179.313 27.046 180.325 26.166C181.337 25.286 181.843 24.1567 181.843 22.778C181.843 21.722 181.52 20.8127 180.875 20.05C180.23 19.2873 179.372 18.6053 178.301 18.004C177.23 17.4027 176.05 16.8233 174.759 16.266C173.439 15.6647 172.229 15.0047 171.129 14.286C170.029 13.5673 169.142 12.7093 168.467 11.712C167.807 10.7 167.477 9.48267 167.477 8.06C167.477 6.652 167.873 5.41267 168.665 4.342C169.472 3.27133 170.55 2.43533 171.899 1.834C173.263 1.23266 174.759 0.931998 176.387 0.931998ZM192.197 4.87H184.365V1.46H203.813V4.87H195.981V30.5H192.197V4.87Z" fill="#313136"/>
</svg>
