<svg width="204" height="31" viewBox="0 0 204 31" fill="none" xmlns="http://www.w3.org/2000/svg">
<path d="M3.962 4.524L4.204 4.568V30H0.442V0.959999H5.744L20.814 26.37L20.572 26.414V0.959999H24.334V30H18.988L3.962 4.524ZM28.3043 15.458C28.3043 17.614 28.7516 19.5573 29.6463 21.288C30.5556 23.0187 31.8023 24.3973 33.3863 25.424C34.9703 26.436 36.789 26.942 38.8423 26.942C40.9103 26.942 42.729 26.436 44.2983 25.424C45.8823 24.3973 47.1216 23.0187 48.0163 21.288C48.911 19.5573 49.3583 17.614 49.3583 15.458C49.3583 13.302 48.911 11.366 48.0163 9.65C47.1216 7.91933 45.8823 6.548 44.2983 5.536C42.729 4.524 40.9103 4.018 38.8423 4.018C36.789 4.018 34.9703 4.524 33.3863 5.536C31.8023 6.548 30.5556 7.91933 29.6463 9.65C28.7516 11.366 28.3043 13.302 28.3043 15.458ZM24.4103 15.458C24.4103 13.346 24.7696 11.3807 25.4883 9.562C26.2216 7.72867 27.241 6.13 28.5463 4.766C29.8516 3.402 31.377 2.33867 33.1223 1.576C34.8823 0.813331 36.789 0.431998 38.8423 0.431998C40.9103 0.431998 42.817 0.813331 44.5623 1.576C46.3223 2.33867 47.8476 3.402 49.1383 4.766C50.4436 6.13 51.4556 7.72867 52.1743 9.562C52.893 11.3807 53.2523 13.346 53.2523 15.458C53.2523 17.5847 52.893 19.5647 52.1743 21.398C51.4703 23.2167 50.4656 24.8153 49.1603 26.194C47.8696 27.558 46.3516 28.6213 44.6063 29.384C42.861 30.1467 40.9396 30.528 38.8423 30.528C36.745 30.528 34.809 30.1467 33.0343 29.384C31.2743 28.6213 29.749 27.558 28.4583 26.194C27.1676 24.8153 26.1703 23.2167 25.4663 21.398C24.7623 19.5647 24.4103 17.5847 24.4103 15.458ZM53.2372 0.959999H63.3792C64.9485 0.959999 66.3712 1.29 67.6472 1.95C68.9379 2.59533 69.9645 3.54866 70.7272 4.81C71.5045 6.05667 71.8932 7.582 71.8932 9.386C71.8932 11.1753 71.5339 12.6567 70.8152 13.83C70.1112 15.0033 69.2605 15.8907 68.2632 16.492C67.2659 17.0787 66.3419 17.4013 65.4912 17.46L72.6852 30H68.4172L61.6852 17.724H56.9992V30H53.2372V0.959999ZM56.9992 14.93H62.0592C63.7899 14.93 65.2199 14.4973 66.3492 13.632C67.4785 12.7667 68.0432 11.3807 68.0432 9.474C68.0432 7.56733 67.4785 6.196 66.3492 5.36C65.2345 4.524 63.8119 4.106 62.0812 4.106H56.9992V14.93ZM73.1554 0.959999H79.9974C83.0921 0.959999 85.6368 1.58333 87.6314 2.83C89.6408 4.062 91.1294 5.77067 92.0974 7.956C93.0654 10.1413 93.5494 12.642 93.5494 15.458C93.5494 18.2887 93.0654 20.7967 92.0974 22.982C91.1294 25.1673 89.6481 26.8833 87.6534 28.13C85.6588 29.3767 83.1068 30 79.9974 30H73.1554V0.959999ZM76.8954 4.392V26.568H79.6894C81.9774 26.568 83.8474 26.0913 85.2994 25.138C86.7514 24.1847 87.8221 22.8793 88.5114 21.222C89.2154 19.55 89.5748 17.6433 89.5894 15.502C89.5894 13.346 89.2448 11.4393 88.5554 9.782C87.8661 8.11 86.7881 6.79733 85.3214 5.844C83.8548 4.876 81.9774 4.392 79.6894 4.392H76.8954ZM94.2672 0.959999H98.0512V30H94.2672V0.959999ZM113.909 26.81C115.713 26.81 117.275 26.5607 118.595 26.062C119.929 25.5633 120.875 25.0793 121.433 24.61L123.083 27.844C122.423 28.4307 121.271 29.0247 119.629 29.626C118.001 30.2273 116.043 30.528 113.755 30.528C111.613 30.528 109.626 30.1467 107.793 29.384C105.959 28.6213 104.353 27.558 102.975 26.194C101.611 24.83 100.54 23.2387 99.7627 21.42C99.0001 19.6013 98.6187 17.636 98.6187 15.524C98.6187 13.412 99.0001 11.4393 99.7627 9.606C100.525 7.77267 101.589 6.174 102.953 4.81C104.331 3.43133 105.937 2.36067 107.771 1.598C109.619 0.820665 111.613 0.431998 113.755 0.431998C116.043 0.431998 118.001 0.732665 119.629 1.334C121.271 1.93533 122.423 2.52933 123.083 3.116L121.433 6.35C120.875 5.866 119.929 5.382 118.595 4.898C117.275 4.39933 115.713 4.15 113.909 4.15C112.266 4.15 110.763 4.42867 109.399 4.986C108.035 5.54333 106.847 6.33533 105.835 7.362C104.837 8.374 104.06 9.56933 103.503 10.948C102.96 12.3267 102.689 13.83 102.689 15.458C102.689 17.1007 102.96 18.6187 103.503 20.012C104.06 21.3907 104.837 22.5933 105.835 23.62C106.847 24.632 108.035 25.4167 109.399 25.974C110.763 26.5313 112.266 26.81 113.909 26.81ZM126.749 4.524L126.991 4.568V30H123.229V0.959999H128.531L143.601 26.37L143.359 26.414V0.959999H147.121V30H141.775L126.749 4.524ZM148.65 0.959999H165.81V4.37H152.368V13.786H165.546V17.108H152.368V26.59H165.81V30H148.65V0.959999ZM176.387 0.431998C178.059 0.431998 179.496 0.622665 180.699 1.004C181.916 1.38533 182.87 1.78867 183.559 2.214C184.263 2.63933 184.681 2.918 184.813 3.05L182.877 6.152C182.657 5.96133 182.268 5.69 181.711 5.338C181.154 4.97133 180.457 4.64867 179.621 4.37C178.785 4.07667 177.832 3.93 176.761 3.93C175.104 3.93 173.791 4.26733 172.823 4.942C171.87 5.602 171.393 6.54066 171.393 7.758C171.393 8.57933 171.642 9.30533 172.141 9.936C172.654 10.552 173.373 11.1167 174.297 11.63C175.221 12.1433 176.299 12.6713 177.531 13.214C178.543 13.6393 179.533 14.1233 180.501 14.666C181.484 15.2087 182.371 15.8467 183.163 16.58C183.97 17.3133 184.608 18.164 185.077 19.132C185.561 20.1 185.803 21.2147 185.803 22.476C185.803 23.7227 185.546 24.8447 185.033 25.842C184.534 26.8393 183.823 27.69 182.899 28.394C181.99 29.0833 180.926 29.6113 179.709 29.978C178.492 30.3447 177.179 30.528 175.771 30.528C173.996 30.528 172.39 30.308 170.953 29.868C169.53 29.428 168.379 28.966 167.499 28.482C166.634 27.998 166.135 27.6973 166.003 27.58L168.049 24.346C168.225 24.4927 168.548 24.7127 169.017 25.006C169.486 25.2847 170.066 25.578 170.755 25.886C171.444 26.194 172.222 26.458 173.087 26.678C173.952 26.8833 174.876 26.986 175.859 26.986C177.824 26.986 179.313 26.546 180.325 25.666C181.337 24.786 181.843 23.6567 181.843 22.278C181.843 21.222 181.52 20.3127 180.875 19.55C180.23 18.7873 179.372 18.1053 178.301 17.504C177.23 16.9027 176.05 16.3233 174.759 15.766C173.439 15.1647 172.229 14.5047 171.129 13.786C170.029 13.0673 169.142 12.2093 168.467 11.212C167.807 10.2 167.477 8.98267 167.477 7.56C167.477 6.152 167.873 4.91267 168.665 3.842C169.472 2.77133 170.55 1.93533 171.899 1.334C173.263 0.732665 174.759 0.431998 176.387 0.431998ZM192.197 4.37H184.365V0.959999H203.813V4.37H195.981V30H192.197V4.37Z" fill="#F7F6F4"/>
</svg>
